<svg xmlns="http://www.w3.org/2000/svg" viewBox="0 0 24 24"><path fill="#fff" d="M7.501 9H3.5a.5.5 0 0 0-.5.499V21.5a.5.5 0 0 0 .499.5H7.5a.5.5 0 0 0 .5-.499V9.5a.5.5 0 0 0-.499-.5zM7 21H4V10h3v11zM18 9a4.93 4.93 0 0 0-3 1.019V9.5a.5.5 0 0 0-.499-.5H10.5a.5.5 0 0 0-.5.499V21.5a.5.5 0 0 0 .499.5H14.5a.5.5 0 0 0 .5-.499V16a1.5 1.5 0 1 1 3 0v5.5a.5.5 0 0 0 .499.5H22.5a.5.5 0 0 0 .5-.499V14a5.006 5.006 0 0 0-5-5zm4 12h-3v-5a2.5 2.5 0 1 0-5 0v5h-3V10h3v1.203a.5.5 0 0 0 .335.472c.2.072.424.008.556-.159a3.982 3.982 0 0 1 7.11 2.485v7zM5.868 2.002A2.73 2.73 0 0 0 5.515 2a2.74 2.74 0 0 0-2.919 2.546l-.006.182a2.71 2.71 0 0 0 2.686 2.733l.183-.005h.028a2.734 2.734 0 1 0 .381-5.455zM5.833 6.46c-.115.011-.232.01-.347-.003h-.028a1.736 1.736 0 0 1-.266-3.462A1.74 1.74 0 0 1 5.515 3a1.74 1.74 0 0 1 1.889 1.57 1.74 1.74 0 0 1-1.571 1.89z"/></svg>